<?xml version="1.0" encoding="UTF-8" standalone="no"?>
<svg
   width="524"
   height="524"
   viewBox="0 0 524 524"
   version="1.1"
   id="SVGRoot"
   sodipodi:docname="CookyBookyLogoV1_Plate_Gsicht.svg"
   inkscape:version="1.1.1 (3bf5ae0d25, 2021-09-20)"
   xmlns:inkscape="http://www.inkscape.org/namespaces/inkscape"
   xmlns:sodipodi="http://sodipodi.sourceforge.net/DTD/sodipodi-0.dtd"
   xmlns:xlink="http://www.w3.org/1999/xlink"
   xmlns="http://www.w3.org/2000/svg"
   xmlns:svg="http://www.w3.org/2000/svg"
   xmlns:rdf="http://www.w3.org/1999/02/22-rdf-syntax-ns#"
   xmlns:cc="http://creativecommons.org/ns#"
   xmlns:dc="http://purl.org/dc/elements/1.1/">
  <title
     id="title1537">Cooky-Booky-Logo</title>
  <sodipodi:namedview
     id="namedview21"
     pagecolor="#ffffff"
     bordercolor="#666666"
     borderopacity="1.0"
     inkscape:pageshadow="2"
     inkscape:pageopacity="0.0"
     inkscape:pagecheckerboard="0"
     inkscape:document-units="px"
     showgrid="false"
     inkscape:zoom="1.2800001"
     inkscape:cx="142.18749"
     inkscape:cy="236.32811"
     inkscape:window-width="2560"
     inkscape:window-height="1391"
     inkscape:window-x="0"
     inkscape:window-y="25"
     inkscape:window-maximized="1"
     inkscape:current-layer="layer1"
     inkscape:snap-page="false"
     inkscape:document-rotation="0"
     fit-margin-top="0"
     fit-margin-left="0"
     fit-margin-right="0"
     fit-margin-bottom="0">
    <inkscape:grid
       type="xygrid"
       id="grid27"
       originx="5.2129981"
       originy="5.0897565" />
  </sodipodi:namedview>
  <defs
     id="defs16">
    <linearGradient
       inkscape:collect="always"
       id="linearGradient863">
      <stop
         style="stop-color:#000000;stop-opacity:1;"
         offset="0"
         id="stop859" />
      <stop
         style="stop-color:#000000;stop-opacity:0;"
         offset="1"
         id="stop861" />
    </linearGradient>
    <marker
       style="overflow:visible"
       id="Arrow1Lstart"
       refX="0"
       refY="0"
       orient="auto"
       inkscape:stockid="Arrow1Lstart"
       inkscape:isstock="true">
      <path
         transform="matrix(0.8,0,0,0.8,10,0)"
         style="fill:#88aa00;fill-opacity:1;fill-rule:evenodd;stroke:#88aa00;stroke-width:1pt;stroke-opacity:1"
         d="M 0,0 5,-5 -12.5,0 5,5 Z"
         id="path847" />
    </marker>
    <inkscape:path-effect
       effect="envelope"
       id="path-effect13875"
       is_visible="true"
       lpeversion="1"
       yy="true"
       xx="true"
       bendpath1="m 512.9386,185.70715 64.60142,0.81046"
       bendpath2="m 577.83862,184.36581 c 9.12817,23.31749 -1.14627,48.28073 -2.69472,71.92567"
       bendpath3="m 535.47377,264.54252 43.48701,2.80149"
       bendpath4="m 505.89323,184.03038 c 14.87653,14.34382 21.92747,44.3683 6.92169,81.44388"
       bendpath4-nodetypes="cc"
       bendpath1-nodetypes="cc"
       bendpath2-nodetypes="cc"
       bendpath3-nodetypes="cc" />
    <inkscape:path-effect
       effect="envelope"
       id="path-effect13778"
       is_visible="true"
       lpeversion="1"
       yy="true"
       xx="true"
       bendpath1="m 505.42819,164.51417 68.96633,-23.04234"
       bendpath2="m 591.58761,170.05783 0.59488,98.69289"
       bendpath3="m 490.58954,256.03257 93.34105,24.38516"
       bendpath4="m 505.31999,171.59882 c 3.38518,22.03244 13.73421,55.96604 3.56086,90.75981"
       bendpath1-nodetypes="cc"
       bendpath3-nodetypes="cc"
       bendpath4-nodetypes="cc"
       bendpath2-nodetypes="cc" />
    <inkscape:path-effect
       effect="envelope"
       id="path-effect4356"
       is_visible="true"
       lpeversion="1"
       yy="true"
       xx="true"
       bendpath1="m 425.40646,186.59795 111.667,3.03466"
       bendpath2="m 493.08959,219.52789 c 8.82753,16.32233 14.70563,37.65539 -3.21455,67.35158"
       bendpath3="M 423.24824,342.49112 536.752,328.66857"
       bendpath4="m 442.21406,220.8137 c 1.85807,36.24347 -7.3657,103.42925 -3.21455,74.42359"
       bendpath1-nodetypes="cc"
       bendpath3-nodetypes="cc"
       bendpath4-nodetypes="cc"
       bendpath2-nodetypes="cc" />
    <inkscape:path-effect
       effect="envelope"
       id="path-effect4316"
       is_visible="true"
       lpeversion="1"
       yy="true"
       xx="true"
       bendpath1="m 446.19626,224.89606 h 44.12498"
       bendpath2="m 490.32124,224.89606 v 62.20831"
       bendpath3="m 446.19626,287.10437 h 44.12498"
       bendpath4="m 446.19626,224.89606 v 62.20831" />
    <inkscape:path-effect
       effect="show_handles"
       id="path-effect4314"
       is_visible="true"
       lpeversion="1"
       nodes="true"
       handles="true"
       original_path="true"
       show_center_node="false"
       original_d="false"
       scale_nodes_and_handles="10" />
    <inkscape:path-effect
       effect="perspective-envelope"
       up_left_point="446.19626,224.89606"
       up_right_point="490.32124,224.89606"
       down_left_point="446.19626,287.10437"
       down_right_point="490.32124,287.10437"
       id="path-effect4312"
       is_visible="true"
       lpeversion="1"
       deform_type="perspective"
       horizontal_mirror="false"
       vertical_mirror="false"
       overflow_perspective="false" />
    <inkscape:path-effect
       effect="perspective-envelope"
       up_left_point="446.19626,226.45795"
       up_right_point="490.32124,226.45795"
       down_left_point="446.19626,288.66626"
       down_right_point="490.32124,288.66626"
       id="path-effect4295"
       is_visible="true"
       lpeversion="1"
       deform_type="envelope_deformation"
       horizontal_mirror="false"
       vertical_mirror="false"
       overflow_perspective="false" />
    <inkscape:path-effect
       effect="perspective-envelope"
       up_left_point="446.19626,224.89606"
       up_right_point="490.32124,224.89606"
       down_left_point="446.19626,287.10437"
       down_right_point="490.32124,287.10437"
       id="path-effect4293"
       is_visible="true"
       lpeversion="1"
       deform_type="envelope_deformation"
       horizontal_mirror="false"
       vertical_mirror="true"
       overflow_perspective="false" />
    <inkscape:path-effect
       effect="perspective-envelope"
       up_left_point="446.19626,226.45795"
       up_right_point="490.32124,226.45795"
       down_left_point="446.19626,288.66626"
       down_right_point="490.32124,288.66626"
       id="path-effect4291"
       is_visible="true"
       lpeversion="1"
       deform_type="envelope_deformation"
       horizontal_mirror="false"
       vertical_mirror="false"
       overflow_perspective="false" />
    <inkscape:path-effect
       effect="perspective-envelope"
       up_left_point="446.19626,226.45795"
       up_right_point="490.32124,226.45795"
       down_left_point="446.19626,288.66626"
       down_right_point="490.32124,288.66626"
       id="path-effect4289"
       is_visible="true"
       lpeversion="1"
       deform_type="perspective"
       horizontal_mirror="false"
       vertical_mirror="false"
       overflow_perspective="false" />
    <linearGradient
       inkscape:collect="always"
       xlink:href="#linearGradient863"
       id="linearGradient865"
       x1="367.18503"
       y1="370.23941"
       x2="318.93533"
       y2="307.08548"
       gradientUnits="userSpaceOnUse"
       gradientTransform="matrix(1.1741225,0,0,1.1741225,-63.798681,-54.865094)" />
  </defs>
  <g
     inkscape:label="Ebene 1"
     inkscape:groupmode="layer"
     id="layer1"
     transform="translate(5.2129981,5.0897565)">
    <circle
       style="opacity:0;fill:none;fill-rule:evenodd;stroke:#000000;stroke-width:70;stroke-miterlimit:4;stroke-dasharray:none;stroke-opacity:0.366474"
       id="path895"
       cx="256"
       cy="256"
       r="219.2126" />
    <path
       style="opacity:1;fill:none;fill-opacity:1;fill-rule:evenodd;stroke:#88aa00;stroke-width:84;stroke-linecap:butt;stroke-linejoin:round;stroke-miterlimit:4;stroke-dasharray:none;stroke-opacity:1;paint-order:normal"
       id="circle825"
       sodipodi:type="arc"
       sodipodi:cx="256"
       sodipodi:cy="256.09518"
       sodipodi:rx="219.213"
       sodipodi:ry="219.2126"
       sodipodi:start="0.69659128"
       sodipodi:end="5.5841338"
       sodipodi:open="true"
       sodipodi:arc-type="arc"
       d="M 424.14376,396.74348 A 219.213,219.2126 0 0 1 181.31017,462.19131 219.213,219.2126 0 0 1 36.787168,256.36484 219.213,219.2126 0 0 1 180.80335,50.183435 219.213,219.2126 0 0 1 423.79722,115.03364" />
    <g
       aria-label="B"
       id="text1906"
       style="font-size:40px;line-height:1.25;fill:none;stroke:#000000;stroke-width:1;stroke-linecap:butt"
       inkscape:path-effect="#path-effect4316" />
    <g
       aria-label="B"
       transform="matrix(1.0805929,0,0,1.9722975,-119.85645,-179.78342)"
       id="text7802"
       style="font-size:46.4106px;line-height:1.25;stroke-width:1.16036906;stroke-miterlimit:4;stroke-dasharray:none"
       inkscape:path-effect="#path-effect13778">
      <path
         d="m 550.35617,202.02156 c 3.8701,-0.0253 6.66989,-1.10758 8.28576,-3.33717 1.60455,-2.21396 1.96838,-5.52292 0.70361,-9.85553 -0.37647,-1.28966 -0.84522,-2.48177 -1.39516,-3.57157 -1.20538,-2.38245 -2.79726,-4.28189 -4.6808,-5.64536 -0.10186,-0.0739 -0.20458,-0.1462 -0.30814,-0.21693 -2.93121,-2.04221 -6.35629,-2.70706 -10.30736,-2.15519 -4.35971,0.609 -9.50014,1.39233 -13.9783,2.1946 0.58497,1.23469 1.15518,2.46806 1.708,3.71022 0.60338,1.35253 1.19531,2.73375 1.77424,4.16375 1.93898,4.80071 3.52457,9.76186 4.643,15.09557 4.37175,-0.26027 9.16581,-0.35365 13.55515,-0.38239 z m -3.02295,57.81378 c 5.00134,0.95789 9.04086,-0.17938 12.28419,-3.32222 3.23192,-3.08838 5.51726,-8.06655 6.4091,-14.22133 0.87322,-6.02659 -0.0197,-10.35522 -2.26745,-13.2416 -2.25016,-2.95327 -5.92421,-4.50854 -10.78836,-4.73511 -4.54003,-0.2115 -9.59778,-0.48586 -14.17405,-0.57154 -0.26454,11.3352 -2.52072,21.4271 -6.468,32.94221 4.98329,1.04183 10.35249,2.25847 15.00457,3.14959 z m 28.29366,-47.26532 c 2.95499,1.26184 5.56414,2.99308 7.74451,5.04629 1.95616,1.84217 3.54948,3.92932 4.73499,6.17328 2.46846,4.67237 3.02102,9.71956 1.91487,16.84712 -0.81548,5.25464 -2.43232,11.46399 -5.16885,17.89805 -2.78061,6.53768 -6.62839,13.07434 -11.48504,18.68465 -4.89504,5.65467 -10.35976,9.81544 -15.7043,11.62979 -5.34807,1.81555 -10.28295,1.23615 -16.26067,-1.2427 -5.40675,-2.24208 -14.90731,-5.93485 -22.52587,-8.86778 -8.53962,-3.2875 -18.27916,-6.72468 -25.91038,-9.919 7.08261,-8.6714 12.37009,-13.70858 16.64493,-23.13625 3.70811,-8.17783 5.13763,-17.38361 4.49462,-25.85859 -0.1996,-2.63581 -0.58317,-5.26516 -1.14485,-7.86127 -0.0696,-0.32192 -0.14194,-0.64368 -0.21704,-0.96525 -1.40523,-6.00351 -3.72078,-11.66721 -6.77951,-16.88142 0,0 0,-2e-5 0,-2e-5 -0.75407,-1.28575 -1.49404,-2.4627 -2.21877,-3.54828 0,0 0,0 0,0 -4.5107,-6.74223 -8.60566,-10.01977 -13.70705,-17.15278 7.42218,-2.95057 18.51549,-7.02726 23.84647,-8.91238 7.0357,-2.48795 13.48983,-4.48859 19.45015,-6.54897 6.38874,-2.20848 11.81019,-3.38327 17.08803,-3.07765 5.29644,0.3067 10.45005,2.13017 15.5452,5.53521 8.19424,5.45114 15.96194,14.83166 19.90654,24.48025 0,0 0,0 0,0 0.76652,1.87378 1.37915,3.73398 1.82844,5.5653 0.1266,0.51624 0.24057,1.03063 0.34203,1.5434 1.1952,6.03993 -0.0257,10.06718 -2.36067,13.25481 -0.77368,1.03834 -1.67693,1.99219 -2.67647,2.86405 -1.11548,0.97435 -2.37603,1.87037 -3.74747,2.66852 -1.1318,0.66075 -2.34829,1.25947 -3.63384,1.78162 z"
         style="font-weight:bold;font-size:99.0092px;-inkscape-font-specification:'sans-serif, Bold';fill:#d4aa00;stroke:#d4aa00;stroke-miterlimit:4;stroke-dasharray:none;stroke-width:1.16036906"
         id="path11922"
         inkscape:original-d="m 547.85229,212.49339 q 4.39933,0 6.67151,-1.93378 2.27219,-1.93377 2.27219,-5.70463 0,-3.72251 -2.27219,-5.65629 -2.27218,-1.98211 -6.67151,-1.98211 h -10.29735 v 15.27681 z m 0.62847,31.56885 q 5.60795,0 8.41192,-2.36887 2.85231,-2.36888 2.85231,-7.15497 0,-4.6894 -2.80397,-7.00992 -2.80397,-2.36888 -8.46026,-2.36888 h -10.92582 v 18.90264 z m 17.30727,-25.96091 q 5.9947,1.7404 9.28212,6.4298 3.28741,4.6894 3.28741,11.50595 0,10.44238 -7.05827,15.56687 -7.05827,5.1245 -21.46489,5.1245 h -30.89203 v -72.17809 h 27.94303 q 15.03509,0 21.75495,4.54437 6.76821,4.54437 6.76821,14.55164 0,5.26954 -2.46556,8.99205 -2.46556,3.67417 -7.15497,5.46291 z"
         inkscape:path-effect="#path-effect13875" />
    </g>
    <circle
       style="fill:#fffffc;stroke:#000000;stroke-width:7.66534;stroke-linejoin:round;stroke-miterlimit:4;stroke-dasharray:none;stroke-opacity:1;fill-opacity:1"
       id="path867"
       cx="256.78699"
       cy="256.91025"
       r="159.69669" />
    <g
       id="g1264"
       transform="matrix(2.1946841,0,0,2.1946841,51.66569,134.10886)">
      <path
         style="fill:none;stroke:#000000;stroke-width:1;stroke-linecap:butt;stroke-linejoin:miter;stroke-miterlimit:4;stroke-dasharray:none;stroke-opacity:1"
         d="m 46.668477,127.06992 c 0,0 3.459266,-2.96304 7.148322,0.30543"
         id="path1304" />
      <path
         style="fill:none;stroke:#000000;stroke-width:1;stroke-linecap:butt;stroke-linejoin:miter;stroke-miterlimit:4;stroke-dasharray:none;stroke-opacity:1"
         d="m 59.106942,108.32306 c 0,0 2.256911,-2.67161 3.925993,-3.21182 1.669079,-0.54021 6.175952,3.88514 5.535155,7.67703 -0.6408,3.79189 -1.810097,14.38117 -3.33274,18.46718 -1.522645,4.086 -6.281658,-2.58662 -6.281658,-2.58662 0,0 -1.982181,-3.67462 -1.873633,-8.76356"
         id="path1681" />
      <path
         style="fill:none;stroke:#000000;stroke-width:1;stroke-linecap:butt;stroke-linejoin:miter;stroke-miterlimit:4;stroke-dasharray:none;stroke-opacity:1"
         d="m 57.877079,125.93401 c 0,0 2.146562,-1.38941 4.03802,-0.0329 1.891459,1.35653 4.106932,2.46212 4.106932,2.46212"
         id="path1815" />
      <path
         style="fill:none;stroke:#000000;stroke-width:1;stroke-linecap:butt;stroke-linejoin:miter;stroke-miterlimit:4;stroke-dasharray:none;stroke-opacity:1"
         d="m 68.550471,111.54092 c 0,0 4.906952,-5.36666 7.877204,-4.77607 2.97025,0.59059 3.754297,5.27391 3.728249,6.40176 -0.02603,1.12785 -2.738162,17.36707 -2.738162,17.36707 l -0.05885,0.0907 c 0,0 -0.569002,3.39449 -4.227621,2.92984 -3.658621,-0.46465 -6.746067,-7.11991 -6.746067,-7.11991 0,0 3.780438,-0.7927 7.299404,1.51613"
         id="path1951" />
      <path
         style="fill:none;stroke:#000000;stroke-width:1;stroke-linecap:butt;stroke-linejoin:miter;stroke-miterlimit:4;stroke-dasharray:none;stroke-opacity:1"
         d="m 62.962042,105.14412 c 0,0 -3.663743,-12.184039 1.133108,-24.494239 4.796853,-12.310197 16.59574,-24.193404 30.28743,-27.819303 13.69169,-3.6259 27.32853,-0.2402 33.50494,9.090172 6.17641,9.330372 8.66283,25.995751 5.98731,32.785967 -2.67551,6.790213 -3.54189,11.893753 -5.42807,16.607523 -1.88617,4.71376 -1.97206,4.71376 -1.97206,4.71376 h -0.0382"
         id="path2165" />
      <path
         style="fill:none;stroke:#000000;stroke-width:1;stroke-linecap:butt;stroke-linejoin:miter;stroke-miterlimit:4;stroke-dasharray:none;stroke-opacity:1"
         d="m 63.77984,81.652618 c 0,0 -3.12661,-8.077533 -4.936291,-9.434256 -1.809681,-1.356722 -3.501747,-0.545555 -5.411496,0.473181 -1.909747,1.018736 -4.429361,5.250616 -4.790541,7.954301 -0.361177,2.703687 -0.251516,6.470917 2.236478,9.639824 2.487993,3.168909 6.391746,4.626678 7.58944,4.503748 1.197698,-0.122928 3.045958,-0.829723 3.045958,-0.829723"
         id="path2299" />
      <path
         style="fill:none;stroke:#000000;stroke-width:1;stroke-linecap:butt;stroke-linejoin:miter;stroke-miterlimit:4;stroke-dasharray:none;stroke-opacity:1"
         d="m 59.903896,83.989018 c 0,0 -0.356394,-2.979369 -2.355374,-4.035867 -1.99898,-1.056497 -3.479541,2.366399 -3.479541,2.366399 0,0 -1.436359,4.009308 2.153269,4.710997 3.589629,0.70169 5.542238,3.640166 5.542238,3.640166"
         id="path2400" />
      <path
         style="fill:none;stroke:#000000;stroke-width:1;stroke-linecap:butt;stroke-linejoin:miter;stroke-miterlimit:4;stroke-dasharray:none;stroke-opacity:1"
         d="m 80.11566,113.39696 5.226116,0.12445"
         id="path863" />
      <path
         style="fill:none;stroke:#000000;stroke-width:1;stroke-linecap:butt;stroke-linejoin:miter;stroke-miterlimit:4;stroke-dasharray:none;stroke-opacity:1"
         d="m 85.410631,113.65504 c 0,0 -0.78142,6.1453 3.434159,6.79657 4.21558,0.65127 9.042895,-5.78651 9.042895,-5.78651 0,0 3.491025,-7.83879 2.761425,-10.56435 -0.729602,-2.72556 -2.512217,-5.045703 -6.035141,-5.205641 -3.522922,-0.159941 -5.396495,0.62008 -5.396495,0.62008 0,0 -2.776267,1.977211 -3.178794,7.807821 -0.402529,5.8306 -0.628049,6.33203 -0.628049,6.33203 z"
         id="path1030" />
      <path
         style="fill:none;stroke:#000000;stroke-width:1;stroke-linecap:butt;stroke-linejoin:miter;stroke-miterlimit:4;stroke-dasharray:none;stroke-opacity:1"
         d="m 77.385075,97.328585 c 0,0 -3.726902,-16.539665 11.047185,-21.592897 0,0 3.711959,-1.287198 5.371328,6.778876 1.659369,8.066074 -2.35155,14.554565 -2.35155,14.554565"
         id="path1263" />
      <path
         style="fill:none;stroke:#000000;stroke-width:1;stroke-linecap:butt;stroke-linejoin:miter;stroke-miterlimit:4;stroke-dasharray:none;stroke-opacity:1"
         d="m 99.752365,96.553864 c 0,0 -3.048862,-10.489359 -1.818314,-14.888999 1.23055,-4.399639 5.194319,-4.758578 5.194319,-4.758578 0,0 6.0484,-0.50622 8.16352,4.397433 2.11513,4.903652 -2.30304,19.18473 -2.30304,19.18473"
         id="path1430" />
      <path
         style="fill:#000000;fill-opacity:1;stroke:#000000;stroke-width:1;stroke-linecap:butt;stroke-linejoin:miter;stroke-miterlimit:4;stroke-dasharray:none;stroke-opacity:1"
         d="m 80.626901,75.886514 c 0,0 -0.809141,-2.835138 2.943722,-3.652528 3.752863,-0.817391 6.667442,0.727456 7.57563,1.752068 0.908184,1.024615 0.845523,-1.412028 0.845523,-1.412028 0,0 -0.50491,-3.218667 -5.298884,-4.740013 -4.793975,-1.521346 -8.432292,4.038764 -8.432292,4.038764 0,0 -0.737703,0.259527 1.472324,2.799646 2.210028,2.540119 0.893977,1.214091 0.893977,1.214091 z"
         id="path1762" />
      <path
         style="fill:#000000;fill-opacity:1;stroke:#000000;stroke-width:1;stroke-linecap:butt;stroke-linejoin:miter;stroke-miterlimit:4;stroke-dasharray:none;stroke-opacity:1"
         d="m 99.907996,75.38979 c 0,0 0.762094,-1.934321 4.440844,-1.036651 3.67876,0.897674 9.05614,-0.50298 9.05614,-0.50298 0,0 -3.47498,-5.19661 -8.17903,-5.221838 -4.70405,-0.02524 -6.847317,4.8753 -6.847317,4.8753 z"
         id="path2622" />
      <path
         style="fill:#000000;fill-opacity:1;stroke:#000000;stroke-width:1;stroke-linecap:butt;stroke-linejoin:miter;stroke-miterlimit:4;stroke-dasharray:none;stroke-opacity:1"
         d="m 83.64019,85.718258 c 0,0 -5.644877,5.509379 -2.186051,8.526889 3.458827,3.017512 6.582966,1.489858 6.582966,1.489858 0,0 3.132444,-1.765067 0.08312,-5.657922 -3.049326,-3.892851 -4.480034,-4.358825 -4.480035,-4.358825 z"
         id="path2822" />
      <path
         style="fill:#000000;fill-opacity:1;stroke:#000000;stroke-width:1;stroke-linecap:butt;stroke-linejoin:miter;stroke-miterlimit:4;stroke-dasharray:none;stroke-opacity:1"
         d="m 105.09472,86.499779 c 0,0 -5.132035,4.219403 -2.47879,7.241167 2.65325,3.021761 5.52202,-2.57687 5.52202,-2.57687 0,0 1.71684,-2.669214 -0.15778,-3.770653 -1.87461,-1.101442 -2.88545,-0.893644 -2.88545,-0.893644 z"
         id="path870" />
      <path
         style="fill:none;stroke:#000000;stroke-width:1;stroke-linecap:butt;stroke-linejoin:miter;stroke-miterlimit:4;stroke-dasharray:none;stroke-opacity:1"
         d="m 133.21884,83.307647 c 0,0 4.46888,-6.25711 8.39593,-2.284147 3.92705,3.972962 -0.53675,12.98943 -0.53675,12.98943 0,0 -1.20172,2.346079 -6.80951,4.858879 -5.60779,2.512801 -1.04967,-15.564162 -1.04967,-15.564162 z"
         id="path1103" />
      <path
         style="fill:none;stroke:#000000;stroke-width:1;stroke-linecap:butt;stroke-linejoin:miter;stroke-miterlimit:4;stroke-dasharray:none;stroke-opacity:1"
         d="m 132.18581,88.461691 c 0,0 2.00607,-3.659394 3.93041,-2.376821 1.92433,1.282573 1.99905,3.578826 1.99905,3.578826 0,0 0.41192,0.751239 -1.57018,1.970251 -1.98211,1.219015 -4.88755,2.091053 -4.88755,2.091053"
         id="path1435" />
      <path
         style="fill:none;stroke:#000000;stroke-width:1;stroke-linecap:butt;stroke-linejoin:miter;stroke-miterlimit:4;stroke-dasharray:none;stroke-opacity:1"
         d="m 98.202359,114.52425 7.073631,0.70799"
         id="path873" />
      <path
         style="fill:none;stroke:#000000;stroke-width:1;stroke-linecap:butt;stroke-linejoin:miter;stroke-miterlimit:4;stroke-dasharray:none;stroke-opacity:1"
         d="m 109.24793,111.62589 c 0,0 -3.34246,16.20614 0.19525,23.30834 3.53772,7.10221 8.68132,-13.16113 8.68132,-13.16113 0,0 1.98874,-4.10396 1.12983,-8.3296 -0.8589,-4.22564 -6.17352,-3.25251 -6.17352,-3.25251 0,0 -1.63407,0.0976 -3.83288,1.4349 z"
         id="path1073" />
      <path
         style="fill:none;stroke:#000000;stroke-width:1;stroke-linecap:butt;stroke-linejoin:miter;stroke-miterlimit:4;stroke-dasharray:none;stroke-opacity:1"
         d="m 119.50152,115.61454 c 0,0 6.18652,-5.82705 8.57754,-3.76638 2.39103,2.06066 1.47728,13.46334 1.47728,13.46334 0,0 -0.99189,8.41904 -4.60401,12.25832 -3.61212,3.83927 -6.38155,-5.53062 -6.38155,-5.53062 0,0 -1.23911,-5.50461 -0.74074,-8.51588"
         id="path1207" />
      <path
         style="fill:none;stroke:#000000;stroke-width:1;stroke-linecap:butt;stroke-linejoin:miter;stroke-miterlimit:4;stroke-dasharray:none;stroke-opacity:1"
         d="m 108.56074,132.79332 c 0,0 3.35041,-3.21524 6.76624,-3.03312"
         id="path1506" />
      <path
         style="fill:none;stroke:#000000;stroke-width:1;stroke-linecap:butt;stroke-linejoin:miter;stroke-miterlimit:4;stroke-dasharray:none;stroke-opacity:1"
         d="m 118.99363,133.35621 c 0,0 4.3779,-7.95381 8.83061,-1.15043"
         id="path1607" />
      <path
         style="fill:none;stroke:#000000;stroke-width:1;stroke-linecap:butt;stroke-linejoin:miter;stroke-miterlimit:4;stroke-dasharray:none;stroke-opacity:1"
         d="m 129.45409,116.68675 c 0,0 6.44056,-6.9959 11.39051,-3.93685 4.94995,3.05906 -0.82437,8.81137 -0.82437,8.81137 0,0 -2.44019,-9.08803 -4.47696,-9.09016"
         id="path1807" />
      <path
         style="fill:none;stroke:#000000;stroke-width:1;stroke-linecap:butt;stroke-linejoin:miter;stroke-miterlimit:4;stroke-dasharray:none;stroke-opacity:1"
         d="m 139.86904,121.6086 c 0,0 1.0874,10.3389 -4.93738,14.30657 -6.02477,3.96766 -5.57998,-9.12834 -5.57998,-9.12834"
         id="path2040" />
      <path
         style="fill:none;stroke:#000000;stroke-width:1;stroke-linecap:butt;stroke-linejoin:miter;stroke-miterlimit:4;stroke-dasharray:none;stroke-opacity:1"
         d="m 130.04242,132.98172 c 0,0 3.4462,-3.73048 7.21737,0.52749"
         id="path2141" />
      <path
         style="fill:none;stroke:#000000;stroke-width:1;stroke-linecap:butt;stroke-linejoin:miter;stroke-miterlimit:4;stroke-dasharray:none;stroke-opacity:1"
         d="m 135.80953,66.400079 c 0,0 5.49696,-6.410777 -10.99967,0.261493 0,0 11.52338,-14.222586 -8.28562,-5.56499 0,0 21.5788,-18.70928 -4.0021,-7.083827 0,0 10.6824,-16.321342 -10.06514,0.967599 0,0 3.55682,-18.502968 -8.605009,0.766776 0,0 -0.361731,-20.161242 -7.581557,2.970721"
         id="path882" />
      <path
         style="fill:none;stroke:#000000;stroke-width:1;stroke-linecap:butt;stroke-linejoin:miter;stroke-miterlimit:4;stroke-dasharray:none;stroke-opacity:1"
         d="m 86.364523,58.553449 c 0,0 -6.906107,-20.879811 -6.178516,0.846612 0,0 -7.067053,-2.287801 -8.310658,-12.075095"
         id="path883" />
      <path
         style="fill:none;stroke:#000000;stroke-width:1;stroke-linecap:butt;stroke-linejoin:miter;stroke-miterlimit:4;stroke-dasharray:none;stroke-opacity:1"
         d="m 59.418385,108.08724 c 0,0 1.006735,-4.86246 -3.979291,-4.13988 -4.986022,0.72257 -7.573999,7.2899 -7.573999,7.2899 0,0 -2.111878,18.13151 0.0496,21.35346 2.161476,3.22196 5.594522,-5.09972 5.594522,-5.09972 0,0 7.128441,-15.71093 5.909168,-19.40376 z"
         id="path1074" />
    </g>
  </g>
  <metadata
     id="metadata1535">
    <rdf:RDF>
      <cc:Work
         rdf:about="">
        <dc:title>Cooky-Booky-Logo</dc:title>
        <dc:format>image/svg+xml</dc:format>
        <dc:type
           rdf:resource="http://purl.org/dc/dcmitype/StillImage" />
      </cc:Work>
    </rdf:RDF>
  </metadata>
</svg>
