<?xml version="1.0" encoding="UTF-8"?>
<svg id="SVGRoot" width="524" height="524" version="1.1" viewBox="0 0 524 524" xmlns="http://www.w3.org/2000/svg" xmlns:xlink="http://www.w3.org/1999/xlink">
 <title>Cooky-Booky-Logo</title>
 <g transform="translate(5.213 5.0898)">
  <circle cx="256" cy="256" r="219.21" opacity="0" stroke-width="70"/>
  <g>
   <path d="m424.14 396.74a219.21 219.21 0 0 1-242.83 65.448 219.21 219.21 0 0 1-144.52-205.83 219.21 219.21 0 0 1 144.02-206.18 219.21 219.21 0 0 1 242.99 64.85" fill="none" stroke="#8a0" stroke-linejoin="round" stroke-width="84" style="paint-order:normal"/>
   <g transform="matrix(1.0806 0 0 1.9723 -119.86 -179.78)" stroke-width="1.1604" aria-label="B">
    <path d="m550.36 202.02c3.8701-0.0253 6.6699-1.1076 8.2858-3.3372 1.6046-2.214 1.9684-5.5229 0.70361-9.8555-0.37647-1.2897-0.84522-2.4818-1.3952-3.5716-1.2054-2.3824-2.7973-4.2819-4.6808-5.6454-0.10186-0.0739-0.20458-0.1462-0.30814-0.21693-2.9312-2.0422-6.3563-2.7071-10.307-2.1552-4.3597 0.609-9.5001 1.3923-13.978 2.1946 0.58497 1.2347 1.1552 2.4681 1.708 3.7102 0.60338 1.3525 1.1953 2.7338 1.7742 4.1638 1.939 4.8007 3.5246 9.7619 4.643 15.096 4.3718-0.26027 9.1658-0.35365 13.555-0.38239zm-3.023 57.814c5.0013 0.95789 9.0409-0.17938 12.284-3.3222 3.2319-3.0884 5.5173-8.0666 6.4091-14.221 0.87322-6.0266-0.0197-10.355-2.2674-13.242-2.2502-2.9533-5.9242-4.5085-10.788-4.7351-4.54-0.2115-9.5978-0.48586-14.174-0.57154-0.26454 11.335-2.5207 21.427-6.468 32.942 4.9833 1.0418 10.352 2.2585 15.005 3.1496zm28.294-47.265c2.955 1.2618 5.5641 2.9931 7.7445 5.0463 1.9562 1.8422 3.5495 3.9293 4.735 6.1733 2.4685 4.6724 3.021 9.7196 1.9149 16.847-0.81548 5.2546-2.4323 11.464-5.1688 17.898-2.7806 6.5377-6.6284 13.074-11.485 18.685-4.895 5.6547-10.36 9.8154-15.704 11.63-5.3481 1.8156-10.283 1.2362-16.261-1.2427-5.4068-2.2421-14.907-5.9348-22.526-8.8678-8.5396-3.2875-18.279-6.7247-25.91-9.919 7.0826-8.6714 12.37-13.709 16.645-23.136 3.7081-8.1778 5.1376-17.384 4.4946-25.859-0.1996-2.6358-0.58317-5.2652-1.1448-7.8613-0.0696-0.32192-0.14194-0.64368-0.21704-0.96525-1.4052-6.0035-3.7208-11.667-6.7795-16.881v-2e-5c-0.75407-1.2858-1.494-2.4627-2.2188-3.5483-4.5107-6.7422-8.6057-10.02-13.707-17.153 7.4222-2.9506 18.515-7.0273 23.846-8.9124 7.0357-2.488 13.49-4.4886 19.45-6.549 6.3887-2.2085 11.81-3.3833 17.088-3.0776 5.2964 0.3067 10.45 2.1302 15.545 5.5352 8.1942 5.4511 15.962 14.832 19.907 24.48 0.76652 1.8738 1.3792 3.734 1.8284 5.5653 0.1266 0.51624 0.24057 1.0306 0.34203 1.5434 1.1952 6.0399-0.0257 10.067-2.3607 13.255-0.77368 1.0383-1.6769 1.9922-2.6765 2.864-1.1155 0.97435-2.376 1.8704-3.7475 2.6685-1.1318 0.66075-2.3483 1.2595-3.6338 1.7816z" fill="#d4aa00" stroke="#d4aa00" stroke-width="1.1604"/>
   </g>
   <circle cx="256.79" cy="256.91" r="159.7" fill="#fffffd" stroke="#000" stroke-linejoin="round" stroke-width="7.6653"/>
  </g>
  <g id="QRcode" transform="matrix(7.776 0 0 7.776 151.81 151.93)">
   <rect width="27" height="27" fill="#fff"/>
   <g id="Pattern" transform="translate(1,1)">
    <rect width="1" height="1"/>
    <rect x="1" width="1" height="1"/>
    <rect x="2" width="1" height="1"/>
    <rect x="3" width="1" height="1"/>
    <rect x="4" width="1" height="1"/>
    <rect x="5" width="1" height="1"/>
    <rect x="6" width="1" height="1"/>
    <rect x="8" width="1" height="1"/>
    <rect x="9" width="1" height="1"/>
    <rect x="12" width="1" height="1"/>
    <rect x="14" width="1" height="1"/>
    <rect x="18" width="1" height="1"/>
    <rect x="19" width="1" height="1"/>
    <rect x="20" width="1" height="1"/>
    <rect x="21" width="1" height="1"/>
    <rect x="22" width="1" height="1"/>
    <rect x="23" width="1" height="1"/>
    <rect x="24" width="1" height="1"/>
    <rect y="1" width="1" height="1"/>
    <rect x="6" y="1" width="1" height="1"/>
    <rect x="10" y="1" width="1" height="1"/>
    <rect x="12" y="1" width="1" height="1"/>
    <rect x="13" y="1" width="1" height="1"/>
    <rect x="16" y="1" width="1" height="1"/>
    <rect x="18" y="1" width="1" height="1"/>
    <rect x="24" y="1" width="1" height="1"/>
    <rect y="2" width="1" height="1"/>
    <rect x="2" y="2" width="1" height="1"/>
    <rect x="3" y="2" width="1" height="1"/>
    <rect x="4" y="2" width="1" height="1"/>
    <rect x="6" y="2" width="1" height="1"/>
    <rect x="8" y="2" width="1" height="1"/>
    <rect x="9" y="2" width="1" height="1"/>
    <rect x="10" y="2" width="1" height="1"/>
    <rect x="11" y="2" width="1" height="1"/>
    <rect x="13" y="2" width="1" height="1"/>
    <rect x="18" y="2" width="1" height="1"/>
    <rect x="20" y="2" width="1" height="1"/>
    <rect x="21" y="2" width="1" height="1"/>
    <rect x="22" y="2" width="1" height="1"/>
    <rect x="24" y="2" width="1" height="1"/>
    <rect y="3" width="1" height="1"/>
    <rect x="2" y="3" width="1" height="1"/>
    <rect x="3" y="3" width="1" height="1"/>
    <rect x="4" y="3" width="1" height="1"/>
    <rect x="6" y="3" width="1" height="1"/>
    <rect x="13" y="3" width="1" height="1"/>
    <rect x="14" y="3" width="1" height="1"/>
    <rect x="15" y="3" width="1" height="1"/>
    <rect x="18" y="3" width="1" height="1"/>
    <rect x="20" y="3" width="1" height="1"/>
    <rect x="21" y="3" width="1" height="1"/>
    <rect x="22" y="3" width="1" height="1"/>
    <rect x="24" y="3" width="1" height="1"/>
    <rect y="4" width="1" height="1"/>
    <rect x="2" y="4" width="1" height="1"/>
    <rect x="3" y="4" width="1" height="1"/>
    <rect x="4" y="4" width="1" height="1"/>
    <rect x="6" y="4" width="1" height="1"/>
    <rect x="12" y="4" width="1" height="1"/>
    <rect x="18" y="4" width="1" height="1"/>
    <rect x="20" y="4" width="1" height="1"/>
    <rect x="21" y="4" width="1" height="1"/>
    <rect x="22" y="4" width="1" height="1"/>
    <rect x="24" y="4" width="1" height="1"/>
    <rect y="5" width="1" height="1"/>
    <rect x="6" y="5" width="1" height="1"/>
    <rect x="8" y="5" width="1" height="1"/>
    <rect x="9" y="5" width="1" height="1"/>
    <rect x="16" y="5" width="1" height="1"/>
    <rect x="18" y="5" width="1" height="1"/>
    <rect x="24" y="5" width="1" height="1"/>
    <rect y="6" width="1" height="1"/>
    <rect x="1" y="6" width="1" height="1"/>
    <rect x="2" y="6" width="1" height="1"/>
    <rect x="3" y="6" width="1" height="1"/>
    <rect x="4" y="6" width="1" height="1"/>
    <rect x="5" y="6" width="1" height="1"/>
    <rect x="6" y="6" width="1" height="1"/>
    <rect x="8" y="6" width="1" height="1"/>
    <rect x="10" y="6" width="1" height="1"/>
    <rect x="12" y="6" width="1" height="1"/>
    <rect x="14" y="6" width="1" height="1"/>
    <rect x="16" y="6" width="1" height="1"/>
    <rect x="18" y="6" width="1" height="1"/>
    <rect x="19" y="6" width="1" height="1"/>
    <rect x="20" y="6" width="1" height="1"/>
    <rect x="21" y="6" width="1" height="1"/>
    <rect x="22" y="6" width="1" height="1"/>
    <rect x="23" y="6" width="1" height="1"/>
    <rect x="24" y="6" width="1" height="1"/>
    <rect x="9" y="7" width="1" height="1"/>
    <rect x="14" y="7" width="1" height="1"/>
    <rect x="15" y="7" width="1" height="1"/>
    <rect x="16" y="7" width="1" height="1"/>
    <rect y="8" width="1" height="1"/>
    <rect x="2" y="8" width="1" height="1"/>
    <rect x="6" y="8" width="1" height="1"/>
    <rect x="7" y="8" width="1" height="1"/>
    <rect x="10" y="8" width="1" height="1"/>
    <rect x="11" y="8" width="1" height="1"/>
    <rect x="12" y="8" width="1" height="1"/>
    <rect x="14" y="8" width="1" height="1"/>
    <rect x="16" y="8" width="1" height="1"/>
    <rect x="19" y="8" width="1" height="1"/>
    <rect x="22" y="8" width="1" height="1"/>
    <rect x="24" y="8" width="1" height="1"/>
    <rect x="2" y="9" width="1" height="1"/>
    <rect x="9" y="9" width="1" height="1"/>
    <rect x="10" y="9" width="1" height="1"/>
    <rect x="12" y="9" width="1" height="1"/>
    <rect x="13" y="9" width="1" height="1"/>
    <rect x="15" y="9" width="1" height="1"/>
    <rect x="16" y="9" width="1" height="1"/>
    <rect x="18" y="9" width="1" height="1"/>
    <rect x="19" y="9" width="1" height="1"/>
    <rect x="21" y="9" width="1" height="1"/>
    <rect x="23" y="9" width="1" height="1"/>
    <rect x="24" y="9" width="1" height="1"/>
    <rect x="4" y="10" width="1" height="1"/>
    <rect x="5" y="10" width="1" height="1"/>
    <rect x="6" y="10" width="1" height="1"/>
    <rect x="7" y="10" width="1" height="1"/>
    <rect x="8" y="10" width="1" height="1"/>
    <rect x="11" y="10" width="1" height="1"/>
    <rect x="15" y="10" width="1" height="1"/>
    <rect x="16" y="10" width="1" height="1"/>
    <rect x="21" y="10" width="1" height="1"/>
    <rect x="22" y="10" width="1" height="1"/>
    <rect x="24" y="10" width="1" height="1"/>
    <rect y="11" width="1" height="1"/>
    <rect x="1" y="11" width="1" height="1"/>
    <rect x="4" y="11" width="1" height="1"/>
    <rect x="8" y="11" width="1" height="1"/>
    <rect x="9" y="11" width="1" height="1"/>
    <rect x="11" y="11" width="1" height="1"/>
    <rect x="12" y="11" width="1" height="1"/>
    <rect x="15" y="11" width="1" height="1"/>
    <rect x="17" y="11" width="1" height="1"/>
    <rect x="18" y="11" width="1" height="1"/>
    <rect x="21" y="11" width="1" height="1"/>
    <rect x="1" y="12" width="1" height="1"/>
    <rect x="3" y="12" width="1" height="1"/>
    <rect x="5" y="12" width="1" height="1"/>
    <rect x="6" y="12" width="1" height="1"/>
    <rect x="8" y="12" width="1" height="1"/>
    <rect x="10" y="12" width="1" height="1"/>
    <rect x="12" y="12" width="1" height="1"/>
    <rect x="15" y="12" width="1" height="1"/>
    <rect x="16" y="12" width="1" height="1"/>
    <rect x="18" y="12" width="1" height="1"/>
    <rect x="19" y="12" width="1" height="1"/>
    <rect x="24" y="12" width="1" height="1"/>
    <rect x="2" y="13" width="1" height="1"/>
    <rect x="5" y="13" width="1" height="1"/>
    <rect x="7" y="13" width="1" height="1"/>
    <rect x="9" y="13" width="1" height="1"/>
    <rect x="12" y="13" width="1" height="1"/>
    <rect x="15" y="13" width="1" height="1"/>
    <rect x="16" y="13" width="1" height="1"/>
    <rect x="18" y="13" width="1" height="1"/>
    <rect x="19" y="13" width="1" height="1"/>
    <rect x="23" y="13" width="1" height="1"/>
    <rect x="24" y="13" width="1" height="1"/>
    <rect y="14" width="1" height="1"/>
    <rect x="1" y="14" width="1" height="1"/>
    <rect x="2" y="14" width="1" height="1"/>
    <rect x="5" y="14" width="1" height="1"/>
    <rect x="6" y="14" width="1" height="1"/>
    <rect x="8" y="14" width="1" height="1"/>
    <rect x="9" y="14" width="1" height="1"/>
    <rect x="10" y="14" width="1" height="1"/>
    <rect x="12" y="14" width="1" height="1"/>
    <rect x="13" y="14" width="1" height="1"/>
    <rect x="15" y="14" width="1" height="1"/>
    <rect x="21" y="14" width="1" height="1"/>
    <rect x="22" y="14" width="1" height="1"/>
    <rect x="24" y="14" width="1" height="1"/>
    <rect x="3" y="15" width="1" height="1"/>
    <rect x="4" y="15" width="1" height="1"/>
    <rect x="5" y="15" width="1" height="1"/>
    <rect x="8" y="15" width="1" height="1"/>
    <rect x="10" y="15" width="1" height="1"/>
    <rect x="11" y="15" width="1" height="1"/>
    <rect x="12" y="15" width="1" height="1"/>
    <rect x="16" y="15" width="1" height="1"/>
    <rect x="17" y="15" width="1" height="1"/>
    <rect x="18" y="15" width="1" height="1"/>
    <rect x="19" y="15" width="1" height="1"/>
    <rect x="20" y="15" width="1" height="1"/>
    <rect x="21" y="15" width="1" height="1"/>
    <rect y="16" width="1" height="1"/>
    <rect x="1" y="16" width="1" height="1"/>
    <rect x="6" y="16" width="1" height="1"/>
    <rect x="8" y="16" width="1" height="1"/>
    <rect x="10" y="16" width="1" height="1"/>
    <rect x="16" y="16" width="1" height="1"/>
    <rect x="17" y="16" width="1" height="1"/>
    <rect x="18" y="16" width="1" height="1"/>
    <rect x="19" y="16" width="1" height="1"/>
    <rect x="20" y="16" width="1" height="1"/>
    <rect x="23" y="16" width="1" height="1"/>
    <rect x="8" y="17" width="1" height="1"/>
    <rect x="9" y="17" width="1" height="1"/>
    <rect x="10" y="17" width="1" height="1"/>
    <rect x="16" y="17" width="1" height="1"/>
    <rect x="20" y="17" width="1" height="1"/>
    <rect x="24" y="17" width="1" height="1"/>
    <rect y="18" width="1" height="1"/>
    <rect x="1" y="18" width="1" height="1"/>
    <rect x="2" y="18" width="1" height="1"/>
    <rect x="3" y="18" width="1" height="1"/>
    <rect x="4" y="18" width="1" height="1"/>
    <rect x="5" y="18" width="1" height="1"/>
    <rect x="6" y="18" width="1" height="1"/>
    <rect x="8" y="18" width="1" height="1"/>
    <rect x="11" y="18" width="1" height="1"/>
    <rect x="13" y="18" width="1" height="1"/>
    <rect x="16" y="18" width="1" height="1"/>
    <rect x="18" y="18" width="1" height="1"/>
    <rect x="20" y="18" width="1" height="1"/>
    <rect x="24" y="18" width="1" height="1"/>
    <rect y="19" width="1" height="1"/>
    <rect x="6" y="19" width="1" height="1"/>
    <rect x="9" y="19" width="1" height="1"/>
    <rect x="10" y="19" width="1" height="1"/>
    <rect x="14" y="19" width="1" height="1"/>
    <rect x="16" y="19" width="1" height="1"/>
    <rect x="20" y="19" width="1" height="1"/>
    <rect x="23" y="19" width="1" height="1"/>
    <rect x="24" y="19" width="1" height="1"/>
    <rect y="20" width="1" height="1"/>
    <rect x="2" y="20" width="1" height="1"/>
    <rect x="3" y="20" width="1" height="1"/>
    <rect x="4" y="20" width="1" height="1"/>
    <rect x="6" y="20" width="1" height="1"/>
    <rect x="9" y="20" width="1" height="1"/>
    <rect x="10" y="20" width="1" height="1"/>
    <rect x="11" y="20" width="1" height="1"/>
    <rect x="12" y="20" width="1" height="1"/>
    <rect x="14" y="20" width="1" height="1"/>
    <rect x="15" y="20" width="1" height="1"/>
    <rect x="16" y="20" width="1" height="1"/>
    <rect x="17" y="20" width="1" height="1"/>
    <rect x="18" y="20" width="1" height="1"/>
    <rect x="19" y="20" width="1" height="1"/>
    <rect x="20" y="20" width="1" height="1"/>
    <rect x="24" y="20" width="1" height="1"/>
    <rect y="21" width="1" height="1"/>
    <rect x="2" y="21" width="1" height="1"/>
    <rect x="3" y="21" width="1" height="1"/>
    <rect x="4" y="21" width="1" height="1"/>
    <rect x="6" y="21" width="1" height="1"/>
    <rect x="10" y="21" width="1" height="1"/>
    <rect x="12" y="21" width="1" height="1"/>
    <rect x="13" y="21" width="1" height="1"/>
    <rect x="15" y="21" width="1" height="1"/>
    <rect x="17" y="21" width="1" height="1"/>
    <rect x="20" y="21" width="1" height="1"/>
    <rect x="22" y="21" width="1" height="1"/>
    <rect x="23" y="21" width="1" height="1"/>
    <rect y="22" width="1" height="1"/>
    <rect x="2" y="22" width="1" height="1"/>
    <rect x="3" y="22" width="1" height="1"/>
    <rect x="4" y="22" width="1" height="1"/>
    <rect x="6" y="22" width="1" height="1"/>
    <rect x="8" y="22" width="1" height="1"/>
    <rect x="10" y="22" width="1" height="1"/>
    <rect x="12" y="22" width="1" height="1"/>
    <rect x="15" y="22" width="1" height="1"/>
    <rect x="17" y="22" width="1" height="1"/>
    <rect x="19" y="22" width="1" height="1"/>
    <rect x="20" y="22" width="1" height="1"/>
    <rect x="21" y="22" width="1" height="1"/>
    <rect x="23" y="22" width="1" height="1"/>
    <rect x="24" y="22" width="1" height="1"/>
    <rect y="23" width="1" height="1"/>
    <rect x="6" y="23" width="1" height="1"/>
    <rect x="10" y="23" width="1" height="1"/>
    <rect x="11" y="23" width="1" height="1"/>
    <rect x="12" y="23" width="1" height="1"/>
    <rect x="14" y="23" width="1" height="1"/>
    <rect x="15" y="23" width="1" height="1"/>
    <rect x="16" y="23" width="1" height="1"/>
    <rect x="18" y="23" width="1" height="1"/>
    <rect x="19" y="23" width="1" height="1"/>
    <rect x="20" y="23" width="1" height="1"/>
    <rect y="24" width="1" height="1"/>
    <rect x="1" y="24" width="1" height="1"/>
    <rect x="2" y="24" width="1" height="1"/>
    <rect x="3" y="24" width="1" height="1"/>
    <rect x="4" y="24" width="1" height="1"/>
    <rect x="5" y="24" width="1" height="1"/>
    <rect x="6" y="24" width="1" height="1"/>
    <rect x="8" y="24" width="1" height="1"/>
    <rect x="9" y="24" width="1" height="1"/>
    <rect x="12" y="24" width="1" height="1"/>
    <rect x="13" y="24" width="1" height="1"/>
    <rect x="14" y="24" width="1" height="1"/>
    <rect x="16" y="24" width="1" height="1"/>
    <rect x="21" y="24" width="1" height="1"/>
    <rect x="24" y="24" width="1" height="1"/>
   </g>
  </g>
 </g>
</svg>
